PathFileType	4	(X/Y/Z)	/Users/itak/Documents/Research/Walk-IL/dataset/trc/00157_00007.trc
DataRate	CameraRate	NumFrames	NumMarkers	Units	OrigDataRate	OrigDataStartFrame	OrigNumFrames
100.000000	100.000000	4	54	mm	100.000000	534	611
Frame#	Time	RPSI			LPSI			L3			STRN			T10			C7			CLAV			RBAK			LBAK			LSHO			LUPA			LAEL			LAOL			LWTS			LWPS			LFRA			LIFD			LHPS			LHTS			RSHO			RUPA			RAEL			RAOL			RWTS			RWPS			RFRA			RIFD			RHTS			RHPS			RBHD			LFHD			RFHD			LBHD			LHIP			RHIP			RASI			LASI			LKNE			LTHI			LANK			LTIP			LTOE			LMT1			LMT5			LHEE			RKNE			RTHI			RANK			RTIP			RTOE			RMT1			RMT5			RHEE			*53			
		X1	Y1	Z1	X2	Y2	Z2	X3	Y3	Z3	X4	Y4	Z4	X5	Y5	Z5	X6	Y6	Z6	X7	Y7	Z7	X8	Y8	Z8	X9	Y9	Z9	X10	Y10	Z10	X11	Y11	Z11	X12	Y12	Z12	X13	Y13	Z13	X14	Y14	Z14	X15	Y15	Z15	X16	Y16	Z16	X17	Y17	Z17	X18	Y18	Z18	X19	Y19	Z19	X20	Y20	Z20	X21	Y21	Z21	X22	Y22	Z22	X23	Y23	Z23	X24	Y24	Z24	X25	Y25	Z25	X26	Y26	Z26	X27	Y27	Z27	X28	Y28	Z28	X29	Y29	Z29	X30	Y30	Z30	X31	Y31	Z31	X32	Y32	Z32	X33	Y33	Z33	X34	Y34	Z34	X35	Y35	Z35	X36	Y36	Z36	X37	Y37	Z37	X38	Y38	Z38	X39	Y39	Z39	X40	Y40	Z40	X41	Y41	Z41	X42	Y42	Z42	X43	Y43	Z43	X44	Y44	Z44	X45	Y45	Z45	X46	Y46	Z46	X47	Y47	Z47	X48	Y48	Z48	X49	Y49	Z49	X50	Y50	Z50	X51	Y51	Z51	X52	Y52	Z52	X53	Y53	Z53	X54	Y54	Z54	

535	5.34	485.5512390136719	1127.959594726562	401.8787536621094	620.135986328125	1127.152587890625	397.6389770507812	555.3091430664062	1159.120971679688	392.6024475097656	568.5845947265625	1366.828979492188	600.8163452148438	558.0744018554688	1305.847412109375	345.9064331054688	577.4397583007812	1599.3251953125	366.0820922851562	573.9628295898438	1498.458374023438	555.177734375	484.5159301757812	1413.802124023438	325.3786010742188	678.7078857421875	1577.225952148438	356.7906799316406	749.2387084960938	1566.140869140625	441.1383361816406	815.2227172851562	1431.9580078125	425.6551513671875	832.7660522460938	1212.9384765625	448.1203918457031	773.0989990234375	1200.19140625	384.4251403808594	789.9893798828125	951.2969360351562	542.5239868164062	814.74267578125	929.6107788085938	459.4687194824219	835.77978515625	1096.584594726562	463.4855041503906	767.4473266601562	758.0590209960938	545.201171875	813.7919311523438	853.0450439453125	484.2744445800781	798.86083984375	861.1242065429688	551.7338256835938	398.291748046875	1586.54931640625	428.4308776855469	331.3088684082031	1514.387451171875	416.8339538574219	301.5653991699219	1219.65283203125	426.6553344726562	397.1970825195312	1215.438110351562	414.2637939453125	320.8697814941406	991.9208984375	593.8010864257812	283.1505126953125	967.812744140625	522.21337890625	285.3745422363281	1148.930541992188	457.6155395507812	336.1231079101562	799.7415771484375	639.693115234375	314.9266967773438	887.3748168945312	634.3692626953125	280.7439880371094	871.9928588867188	569.7630004882812	485.3268432617188	1774.706665039062	441.9456481933594	676.4637451171875	1843.216674804688	528.6802368164062	560.5996704101562	1850.82177734375	586.3010864257812	603.3699951171875	1771.3310546875	376.4972534179688	729.7442626953125	1039.2216796875	487.0221252441406	372.7779541015625	1039.45703125	536.98828125	429.1411437988281	1111.185913085938	613.2747802734375	695.056640625	1106.084350585938	597.0425415039062	688.4745483398438	538.0817260742188	510.2151184082031	719.4395141601562	683.4911499023438	489.6159362792969	663.2503662109375	34.81655883789062	410.2019348144531	706.2542724609375	291.4327087402344	414.2709350585938	598.4883422851562	37.3486328125	641.447021484375	570.1322631835938	46.88246536254883	557.4032592773438	687.5025024414062	33.67285919189453	534.65234375	603.617431640625	37.42124557495117	339.3914794921875	399.354248046875	543.02197265625	530.952880859375	375.0783081054688	823.189208984375	553.9205932617188	408.2908325195312	30.17157554626465	438.2305297851562	386.3262329101562	410.5838012695312	504.9563598632812	464.6769409179688	45.57861709594727	669.6091918945312	508.8501586914062	37.24373626708984	608.94921875	390.3340454101562	40.85619354248047	572.7843627929688	456.0986328125	29.22580337524414	380.4743347167969	nan	nan	nan	
536	5.350000000000001	485.1647338867188	1128.0498046875	401.8585815429688	619.6771240234375	1127.183471679688	397.779296875	554.8922119140625	1159.114013671875	392.6126098632812	568.197509765625	1366.696899414062	601.0521850585938	557.6621704101562	1306.052978515625	346.0159912109375	577.0703125	1599.49072265625	366.6599426269531	573.6787109375	1498.400146484375	555.6179809570312	484.0004272460938	1414.028076171875	325.7708740234375	678.2572631835938	1577.338989257812	357.2797546386719	748.8404541015625	1566.10009765625	441.5463562011719	814.9760131835938	1432.058715820312	425.5117492675781	832.874755859375	1212.979736328125	446.8065490722656	773.3324584960938	1200.401733398438	382.9421691894531	789.504150390625	951.7972412109375	541.9367065429688	814.4555053710938	929.5917358398438	459.0775451660156	835.774169921875	1096.569091796875	462.316650390625	766.633544921875	758.6874389648438	545.833251953125	813.3257446289062	853.1738891601562	484.3718566894531	798.1859130859375	861.713623046875	551.7289428710938	397.9297180175781	1586.708129882812	429.11669921875	330.9200744628906	1514.567626953125	417.5560607910156	301.1621704101562	1219.804809570312	427.4592590332031	396.7943420410156	1215.565795898438	414.8892517089844	320.84033203125	991.9710083007812	594.4943237304688	282.9312133789062	967.9357299804688	522.9576416015625	285.1000366210938	1149.057495117188	458.4366149902344	336.1519165039062	799.7985229492188	640.2332153320312	314.9649963378906	887.4116821289062	635.0016479492188	280.581787109375	872.0726318359375	570.4398803710938	484.9445190429688	1774.725219726562	442.600830078125	676.234619140625	1843.358032226562	528.9656372070312	560.4384765625	1850.9140625	586.7802734375	602.934326171875	1771.335693359375	376.9793701171875	729.2306518554688	1039.128295898438	486.93310546875	372.3134460449219	1039.448608398438	536.916259765625	428.6518249511719	1111.119140625	613.2365112304688	694.5792236328125	1105.985473632812	597.0947875976562	688.199462890625	538.0636596679688	510.4485473632812	719.0966186523438	683.444091796875	489.7971801757812	663.2614135742188	34.79787063598633	410.1906127929688	706.1812744140625	291.5117797851562	414.5169372558594	598.4747314453125	37.35334396362305	641.410888671875	570.109130859375	46.86039352416992	557.3907470703125	687.4683227539062	33.71029663085938	534.6427001953125	603.6300659179688	37.37159729003906	339.3716735839844	398.97900390625	542.98779296875	530.8081665039062	374.649658203125	823.1145629882812	553.7542114257812	408.2733764648438	30.15293121337891	438.2311401367188	386.0292663574219	410.5268859863281	504.9651794433594	464.6615905761719	45.58120346069336	669.6058349609375	508.8697814941406	37.33192443847656	609.0134887695312	390.3165283203125	40.84896469116211	572.7852783203125	456.0796508789062	29.21413993835449	380.4803161621094	nan	nan	nan	
537	5.36	484.7717590332031	1128.137084960938	401.8367919921875	619.2276000976562	1127.21630859375	397.850830078125	554.4752807617188	1159.1005859375	392.5796203613281	567.8217163085938	1366.57177734375	601.2562866210938	557.2623291015625	1306.264770507812	346.0509643554688	576.6885375976562	1599.645141601562	367.203369140625	573.4010009765625	1498.3447265625	556.021240234375	483.451171875	1414.243896484375	326.1310729980469	677.7928466796875	1577.439453125	357.7193603515625	748.4589233398438	1566.0556640625	441.8745727539062	814.7286987304688	1432.1474609375	425.3043518066406	833.0001831054688	1213.025268554688	445.4851989746094	773.572021484375	1200.583251953125	381.4643249511719	789.0601196289062	952.35302734375	541.4765625	814.212890625	929.581298828125	458.8328552246094	835.7922973632812	1096.564086914062	461.1946716308594	765.8313598632812	759.3804321289062	546.706787109375	812.9089965820312	853.3274536132812	484.6636657714844	797.5380249023438	862.36669921875	551.9037475585938	397.5613403320312	1586.867065429688	429.7838745117188	330.5312194824219	1514.732177734375	418.2675170898438	300.7794799804688	1219.943603515625	428.1885375976562	396.4277954101562	1215.691650390625	415.4688415527344	320.8107299804688	991.958984375	595.0446166992188	282.733154296875	968.0223388671875	523.5349731445312	284.8529052734375	1149.160766601562	459.1595764160156	336.1788940429688	799.7728271484375	640.5689086914062	315.0151977539062	887.3735961914062	635.4552001953125	280.4420776367188	872.10546875	570.9213256835938	484.5655822753906	1774.740112304688	443.2326354980469	675.9977416992188	1843.482788085938	529.2474975585938	560.2747802734375	1850.989501953125	587.2404174804688	602.505859375	1771.3427734375	377.4513854980469	728.7271728515625	1039.043701171875	486.8273620605469	371.7843322753906	1039.391845703125	536.8001098632812	428.2002258300781	1111.080688476562	613.1950073242188	694.1212158203125	1105.890502929688	597.1298217773438	687.91796875	538.054443359375	510.6543579101562	718.74169921875	683.4093627929688	489.9834899902344	663.2759399414062	34.78800582885742	410.1864013671875	706.1090087890625	291.563232421875	414.7256774902344	598.4570922851562	37.34864807128906	641.3846435546875	570.0862426757812	46.83781814575195	557.38134765625	687.4371948242188	33.7466926574707	534.6370239257812	603.6494140625	37.33335494995117	339.35693359375	398.6217346191406	542.959716796875	530.6997680664062	374.2247009277344	823.059326171875	553.6016845703125	408.2550354003906	30.13720893859863	438.2294311523438	385.7491760253906	410.4685668945312	505.0022888183594	464.6455688476562	45.58586883544922	669.5995483398438	508.8896789550781	37.42143630981445	609.0738525390625	390.2978820800781	40.84245681762695	572.7847290039062	456.0573425292969	29.20373344421387	380.4844665527344	nan	nan	nan	
538	5.37	484.366455078125	1128.2177734375	401.8176879882812	618.7855224609375	1127.254150390625	397.8727111816406	554.0538330078125	1159.089233398438	392.5165405273438	567.4620361328125	1366.455810546875	601.4298706054688	556.8798828125	1306.474731445312	346.02392578125	576.292724609375	1599.783569335938	367.7113952636719	573.130126953125	1498.291259765625	556.386962890625	482.8784484863281	1414.456176757812	326.4561157226562	677.3169555664062	1577.52685546875	358.1066284179688	748.1005859375	1566.015258789062	442.1252746582031	814.4778442382812	1432.227294921875	425.0355529785156	833.1326293945312	1213.073974609375	444.17138671875	773.794189453125	1200.737915039062	380.0157775878906	788.6751098632812	952.94970703125	541.1298828125	814.00927734375	929.5841674804688	458.7095642089844	835.8256225585938	1096.572875976562	460.1227111816406	765.0823974609375	760.12353515625	547.7706298828125	812.540771484375	853.5043334960938	485.106201171875	796.9475708007812	863.0687866210938	552.222412109375	397.1868286132812	1587.022094726562	430.4266357421875	330.1466979980469	1514.873168945312	418.9554748535156	300.4230041503906	1220.063354492188	428.8428955078125	396.1022033691406	1215.815795898438	415.9967651367188	320.7767639160156	991.8897705078125	595.4559326171875	282.5532836914062	968.0699462890625	523.9483032226562	284.628662109375	1149.239379882812	459.7822570800781	336.2008666992188	799.6680297851562	640.7074584960938	315.0671691894531	887.2637939453125	635.736083984375	280.3305358886719	872.0889892578125	571.216796875	484.1915893554688	1774.749877929688	443.8399047851562	675.7542724609375	1843.591064453125	529.5221557617188	560.1165161132812	1851.051879882812	587.686279296875	602.08154296875	1771.3486328125	377.9088134765625	728.2293090820312	1038.969848632812	486.7117309570312	371.1955871582031	1039.29345703125	536.6257934570312	427.7735290527344	1111.06298828125	613.1500854492188	693.6732177734375	1105.799438476562	597.1480712890625	687.6311645507812	538.0515747070312	510.82275390625	718.3873291015625	683.3892822265625	490.16259765625	663.297119140625	34.78062057495117	410.1864929199219	706.0381469726562	291.587890625	414.8884582519531	598.4382934570312	37.34215545654297	641.3648071289062	570.0645751953125	46.81661605834961	557.372314453125	687.410400390625	33.78050994873047	534.634033203125	603.6784057617188	37.30367279052734	339.3446044921875	398.2893981933594	542.9356079101562	530.6249389648438	373.7959899902344	823.0211181640625	553.4596557617188	408.2350463867188	30.12272262573242	438.2260131835938	385.4858093261719	410.4098510742188	505.0607299804688	464.6294860839844	45.59208679199219	669.5902709960938	508.9080200195312	37.50618743896484	609.124755859375	390.280029296875	40.83673095703125	572.7833862304688	456.0317077636719	29.19455909729004	380.4866943359375	nan	nan	nan	
